<?xml version="1.0"?>
<svg xmlns="http://www.w3.org/2000/svg" id="Layer_1" height="512" viewBox="0 0 512 512" width="512" data-name="Layer 1" class=""><g><path d="m125.77 72.072a26.2 26.2 0 0 1 16.494 16.495 6 6 0 0 0 11.385 0 26.2 26.2 0 0 1 16.5-16.495 6 6 0 0 0 0-11.384 26.206 26.206 0 0 1 -16.5-16.5 6 6 0 0 0 -11.385 0 26.206 26.206 0 0 1 -16.5 16.5 6 6 0 0 0 0 11.384zm22.187-13.267a38.523 38.523 0 0 0 7.574 7.575 38.464 38.464 0 0 0 -7.574 7.574 38.5 38.5 0 0 0 -7.575-7.574 38.555 38.555 0 0 0 7.575-7.575z" data-original="#000000" class="active-path" style="fill:#E3E9ED" data-old_color="#000000"/><path d="m502.9 91.122a26.2 26.2 0 0 1 -16.5-16.5 6 6 0 0 0 -11.384 0 26.2 26.2 0 0 1 -16.495 16.5 6 6 0 0 0 0 11.384 26.209 26.209 0 0 1 16.497 16.494 6 6 0 0 0 11.384 0 26.209 26.209 0 0 1 16.5-16.5 6 6 0 0 0 0-11.384zm-22.19 13.268a38.479 38.479 0 0 0 -7.575-7.576 38.442 38.442 0 0 0 7.575-7.574 38.469 38.469 0 0 0 7.575 7.574 38.479 38.479 0 0 0 -7.575 7.576z" data-original="#000000" class="active-path" style="fill:#E3E9ED" data-old_color="#000000"/><path d="m450.611 173.749a6 6 0 1 0 -11.448 3.6 133.1 133.1 0 0 1 5.678 50.315 6 6 0 0 0 5.5 6.46c.163.013.325.02.486.02a6 6 0 0 0 5.974-5.521 145.055 145.055 0 0 0 -6.191-54.871z" data-original="#000000" class="active-path" style="fill:#E3E9ED" data-old_color="#000000"/><path d="m439.038 146.9a144.193 144.193 0 0 0 -9.657-15.015 6 6 0 0 0 -9.67 7.105 132.226 132.226 0 0 1 8.851 13.762 6 6 0 1 0 10.476-5.852z" data-original="#000000" class="active-path" style="fill:#E3E9ED" data-old_color="#000000"/><path d="m99.224 169.007a5.995 5.995 0 0 0 6.834-5.029 163.206 163.206 0 0 1 8.525-32.652 168.787 168.787 0 0 1 15.387-30.921 6 6 0 1 0 -10.141-6.414 180.757 180.757 0 0 0 -16.483 33.124 175.27 175.27 0 0 0 -9.146 35.058 6 6 0 0 0 5.024 6.834z" data-original="#000000" class="active-path" style="fill:#E3E9ED" data-old_color="#000000"/><path d="m295.89 452.062a21 21 0 1 0 -21-21 21.024 21.024 0 0 0 21 21zm0-30a9 9 0 1 1 -9 9 9.01 9.01 0 0 1 9-9z" data-original="#000000" class="active-path" style="fill:#E3E9ED" data-old_color="#000000"/><path d="m355.89 452.062a21 21 0 1 0 -21-21 21.024 21.024 0 0 0 21 21zm0-30a9 9 0 1 1 -9 9 9.01 9.01 0 0 1 9-9z" data-original="#000000" class="active-path" style="fill:#E3E9ED" data-old_color="#000000"/><path d="m235.89 452.062a21 21 0 1 0 -21-21 21.024 21.024 0 0 0 21 21zm0-30a9 9 0 1 1 -9 9 9.01 9.01 0 0 1 9-9z" data-original="#000000" class="active-path" style="fill:#E3E9ED" data-old_color="#000000"/><path d="m267.684 202.428a28.324 28.324 0 0 0 -5.852 21.151 28.728 28.728 0 0 0 28.515 25.013 29.1 29.1 0 0 0 3.65-.23 28.719 28.719 0 0 0 19.145-10.844 28.324 28.324 0 0 0 5.852-21.151 28.85 28.85 0 0 0 -51.31-13.939zm9.45 7.4a16.788 16.788 0 0 1 11.2-6.335 17.029 17.029 0 0 1 2.139-.135 16.711 16.711 0 0 1 16.619 14.517 16.408 16.408 0 0 1 -3.4 12.251 16.851 16.851 0 0 1 -29.955-8.047 16.413 16.413 0 0 1 3.397-12.255z" data-original="#000000" class="active-path" style="fill:#E3E9ED" data-old_color="#000000"/><path d="m488.524 195.005a176.472 176.472 0 0 0 -30.108-78.31 178.838 178.838 0 0 0 -169.127-75.015c-46.395 5.8-88.262 29.671-117.869 67.2-22.112 28.032-35.085 60.8-37.96 94.774a67.94 67.94 0 0 0 -62.46 67.653v63.139a13.075 13.075 0 0 1 -13.065 13.035 52.76 52.76 0 1 0 -.029 105.519h81.871a23.864 23.864 0 0 0 23.27 19h265.686c13.154 0 24.267-10.792 24.267-23.947v-33.983a24.225 24.225 0 0 0 -20-23.529v-43.618a176.792 176.792 0 0 0 55.524-151.918zm-307.693-78.689c27.641-35.042 66.68-57.316 109.926-62.729a166.223 166.223 0 0 1 101.258 19.245c.5.275 1 .567 1.494.848l-104.1 90.231a57.165 57.165 0 0 0 -6.019.435 56.339 56.339 0 0 0 -37.562 21.272 55.479 55.479 0 0 0 -11.465 41.426c3.572 28.283 27.909 49.007 55.911 49.007a57.163 57.163 0 0 0 7.164-.452q2.857-.36 5.63-1l117.932 73.224v12.177h-251v-24.484a117.24 117.24 0 0 0 -10.424-49.4 163.6 163.6 0 0 1 -13.709-49c-5.137-42.871 7.333-85.772 34.964-120.8zm109.712 59.584a44.293 44.293 0 0 1 44.015 38.51 43.563 43.563 0 0 1 -9.009 32.525 44.416 44.416 0 0 1 -29.614 16.763c-24.342 3.067-46.623-14.046-49.668-38.154a43.566 43.566 0 0 1 9.01-32.526 44.414 44.414 0 0 1 29.613-16.763 45.28 45.28 0 0 1 5.653-.355zm130.457 196.1v18h-251v-18zm-288.162-156.252a171.734 171.734 0 0 0 .951 20.5q-1.233.175-2.439.436l-9.46-18.634a55.446 55.446 0 0 1 10.948-2.302zm-21.931 7.181 7.356 14.49-14.113-9.887a55.92 55.92 0 0 1 6.757-4.603zm-15.44 13.171 16.421 11.5-21.23-4.582a56.093 56.093 0 0 1 4.809-6.918zm-9.841 17.958 20.161 4.274a42.487 42.487 0 0 0 -1.863 6.668h-20.655a51.519 51.519 0 0 1 2.357-10.941zm-2.626 22.942h20v9h-20zm0 21h20v8h-20zm0 20h20v10.3l-20-2.071zm-.348 20.26 20.362 2.061a45.158 45.158 0 0 1 -5.983 17.314l-16.8-11.888a24.828 24.828 0 0 0 2.421-7.487zm-10.3 16.612 17.227 12.192a45.691 45.691 0 0 1 -12 8.4l-12.154-17.138a24.965 24.965 0 0 0 6.93-3.454zm-20.5 5.06 13.723 19.353a45.521 45.521 0 0 1 -7.67.66c-.618 0-1.228.039-1.833.093l-17.552-15.662a40.6 40.6 0 0 1 13.333-4.444zm-33.42 51.168a40.784 40.784 0 0 1 -.922-17.142l20.031 4.917c-.017.222-.025.446-.034.669zm15.031 22.069a41.226 41.226 0 0 1 -10.153-10.995l17.5-10.6a20.7 20.7 0 0 0 2.084 2.65zm8.514-45.562-20.845-5.117a41.094 41.094 0 0 1 7.614-10.752l15.309 13.662a20.472 20.472 0 0 0 -2.078 2.206zm16.023 53.393h-.094a40.635 40.635 0 0 1 -13.875-2.28l9.254-18.42a20.483 20.483 0 0 0 4.621.7h.094zm20 0h-8v-20h8zm21 0h-9v-20h9zm20 0h-8v-20h8zm20 0h-8v-20h8zm.777-32h-81.871a8.525 8.525 0 0 1 -8.442-8.528 8.317 8.317 0 0 1 8.239-8.485 57.427 57.427 0 0 0 57.297-57.541v-63.139a23.633 23.633 0 0 1 20.25-23.174 175.188 175.188 0 0 0 13.322 43 105.4 105.4 0 0 1 9.428 44.383v55.168c-9 1.853-16.168 9.316-18.223 18.316zm48.223 51h-24.953a12.111 12.111 0 0 1 -12.047-11.947v-33.983a12.218 12.218 0 0 1 12.047-12.07h24.953zm204 0h-192v-58h192zm49-45.93v33.983c0 6.538-5.729 11.947-12.267 11.947h-24.733v-58h24.733a12.411 12.411 0 0 1 12.267 12.07zm-14.958-77.242-108.793-67.544a56.366 56.366 0 0 0 17.751-14.957 55.473 55.473 0 0 0 11.463-41.427 56.159 56.159 0 0 0 -41.025-47l98.808-85.643a166.826 166.826 0 0 1 44.233 43.293 162.055 162.055 0 0 1 27.967 72.962 164.683 164.683 0 0 1 -50.404 140.316z" data-original="#000000" class="active-path" style="fill:#E3E9ED" data-old_color="#000000"/></g> </svg>
