<?xml version="1.0" standalone="no"?>
<!DOCTYPE svg PUBLIC "-//W3C//DTD SVG 20010904//EN" "http://www.w3.org/TR/2001/REC-SVG-20010904/DTD/svg10.dtd">
<!-- Created using Krita: http://krita.org -->
<svg xmlns="http://www.w3.org/2000/svg" 
    xmlns:xlink="http://www.w3.org/1999/xlink"
    xmlns:krita="http://krita.org/namespaces/svg/krita"
    xmlns:sodipodi="http://sodipodi.sourceforge.net/DTD/sodipodi-0.dtd"
    width="480pt"
    height="91.2pt"
    viewBox="0 0 480 91.2">
<defs/>
<circle id="shape02" transform="matrix(1.14224329331642 0 0 1.14224317062453 128.078525419248 11.9078996506582)" r="17.52" cx="17.52" cy="17.52" fill="#b8d8e1" fill-rule="evenodd" stroke="#b8d8e1" stroke-width="2.4" stroke-linecap="square" stroke-linejoin="bevel"/><path id="shape4" transform="matrix(1.14224329413229 0 0 1.142243183846 130.545771037946 21.3754848106802)" fill="#f3f0e7" fill-rule="evenodd" stroke="#f3f0e7" stroke-width="2.4" stroke-linecap="square" stroke-linejoin="bevel" d="M4.63832 0L0 9.74046L8.45811 21.118L19.9629 22.755L23.8282 13.2601L8.95832 4.37912Z"/><path id="shape5" transform="matrix(1.14224329413229 0 0 1.142243183846 149.677745033982 12.5609264206776)" fill="#f3f0e7" fill-rule="evenodd" stroke="#f3f0e7" stroke-width="2.4" stroke-linecap="square" stroke-linejoin="bevel" d="M0 0L2.81937 6.67099L11.1865 11.0501L10.5954 5.07486Z"/><path id="shape05" transform="matrix(0.755665275337584 0.261309217314275 -0.261309213179239 0.755665356726344 43.1190027722946 28.191843688671)" fill="#dddfb9" fill-rule="evenodd" stroke="#dddfb9" stroke-width="2.4" stroke-linecap="square" stroke-linejoin="bevel" d="M4.69032 5.8483L0 7.43054L4.36084 9.64372L4.18526 15.6623L7.89313 11.4813L12.9517 13.4541L10.1074 7.77104L13.6736 4.01069L8.32435 5.05718L5.26692 0Z"/><path id="shape051" transform="matrix(0.755665275337584 0.261309217314275 -0.261309213179239 0.755665356726344 183.453986950531 36.012497761795)" fill="#dddfb9" fill-rule="evenodd" stroke="#dddfb9" stroke-width="2.4" stroke-linecap="square" stroke-linejoin="bevel" d="M2.664 3.32171L0 4.22039L2.47686 5.47743L2.37714 8.89585L4.48313 6.52113L7.35629 7.64164L5.74079 4.41379L7.76631 2.27799L4.72805 2.87237L2.9915 0Z"/><path id="shape052" transform="matrix(0.755665275337584 0.261309217314275 -0.261309213179239 0.755665356726344 239.472015057002 27.5487947918806)" fill="#dddfb9" fill-rule="evenodd" stroke="#dddfb9" stroke-width="2.4" stroke-linecap="square" stroke-linejoin="bevel" d="M4.69032 5.8483L0 7.43054L4.36084 9.64372L4.18526 15.6623L7.89313 11.4813L12.9517 13.4541L10.1074 7.77104L13.6736 4.01069L8.32435 5.05718L5.26692 0Z"/><path id="shape053" transform="matrix(0.755665277325197 0.261309217705395 -0.261309213866556 0.755665357857401 105.905699630184 34.4327326488741)" fill="#dddfb9" fill-rule="evenodd" stroke="#dddfb9" stroke-width="2.4" stroke-linecap="square" stroke-linejoin="bevel" d="M6.48641 5.41109L0 6.87503L6.03077 8.92277L5.78794 14.4914L10.9157 10.623L17.9114 12.4483L13.9779 7.19009L18.9097 3.71085L11.512 4.67911L7.28382 0Z"/><path id="shape054" transform="matrix(0.755665277325197 0.261309217705395 -0.261309213866556 0.755665357857401 77.5457507750055 19.9596443043638)" fill="#dddfb9" fill-rule="evenodd" stroke="#dddfb9" stroke-width="2.4" stroke-linecap="square" stroke-linejoin="bevel" d="M2.73527 3.15559L0 4.00932L2.54313 5.2035L2.44073 8.45097L4.60307 6.19501L7.55309 7.25948L5.89437 4.19305L7.97408 2.16406L4.85454 2.72872L3.07153 0Z"/><path id="shape055" transform="matrix(0.755665291080948 0.261309210757058 -0.261309218623298 0.755665337763894 205.95737604119 13.3828989113775)" fill="#dddfb9" fill-rule="evenodd" stroke="#dddfb9" stroke-width="2.4" stroke-linecap="square" stroke-linejoin="bevel" d="M3.66966 4.06649L0 5.16667L3.41187 6.70556L3.2745 10.8905L6.1755 7.98328L10.1333 9.35503L7.90792 5.40343L10.6981 2.78875L6.51288 3.5164L4.12078 0Z"/>
</svg>
