<?xml version="1.0" standalone="no"?>
<!DOCTYPE svg PUBLIC "-//W3C//DTD SVG 20010904//EN" "http://www.w3.org/TR/2001/REC-SVG-20010904/DTD/svg10.dtd">
<!-- Created using Krita: http://krita.org -->
<svg xmlns="http://www.w3.org/2000/svg" 
    xmlns:xlink="http://www.w3.org/1999/xlink"
    xmlns:krita="http://krita.org/namespaces/svg/krita"
    xmlns:sodipodi="http://sodipodi.sourceforge.net/DTD/sodipodi-0.dtd"
    width="720pt"
    height="530.64pt"
    viewBox="0 0 720 530.64">
<defs/>
<path id="shape03" transform="matrix(0.981141924291759 0.193288469380608 -0.193288489622313 0.981142027039665 172.910398672651 141.472268146273)" fill="#dddfb9" fill-rule="evenodd" stroke="#dddfb9" stroke-width="2.4" stroke-linecap="square" stroke-linejoin="bevel" d="M10.3054 11.4529L0 14.5515L9.58149 18.8856L9.1957 30.672L17.3425 22.4843L28.4569 26.3476L22.2077 15.2183L30.0432 7.85427L18.29 9.90366L11.5723 0Z"/><path id="shape031" transform="matrix(0.638420877450036 0.769687386474745 -0.769687463264947 0.638420937145861 459.944470902926 124.669132558785)" fill="#dddfb9" fill-rule="evenodd" stroke="#dddfb9" stroke-width="2.4" stroke-linecap="square" stroke-linejoin="bevel" d="M9.51588 9.59252L0 12.1878L8.84743 15.8179L8.49119 25.6897L16.0138 18.832L26.2767 22.0678L20.5063 12.7463L27.7415 6.57844L16.8888 8.29493L10.6857 0Z"/><path id="shape032" transform="matrix(0.951786571642463 -0.306760837956021 0.30676086484896 0.9517866651149 186.615158172965 379.352256914581)" fill="#dddfb9" fill-rule="evenodd" stroke="#dddfb9" stroke-width="2.4" stroke-linecap="square" stroke-linejoin="bevel" d="M8.27665 9.39441L0 11.9361L7.69525 15.4912L7.38541 25.1592L13.9284 18.4431L22.8548 21.612L17.8358 12.483L24.1288 6.44258L14.6894 8.12362L9.29414 0Z"/><path id="shape033" transform="matrix(0.981141915594037 0.193288466098879 -0.19328848790883 0.981142010381444 635.955972559682 283.6250744394)" fill="#dddfb9" fill-rule="evenodd" stroke="#dddfb9" stroke-width="2.4" stroke-linecap="square" stroke-linejoin="bevel" d="M6.7041 8.07798L0 10.2635L6.23317 13.3204L5.9822 21.6336L11.282 15.8587L18.5124 18.5835L14.4471 10.7338L19.5444 5.53979L11.8984 6.98526L7.52828 0Z"/><path id="shape034" transform="matrix(0.816479162154783 0.577374806715203 -0.577374865357585 0.816479239752448 651.705570312363 110.26313579838)" fill="#dddfb9" fill-rule="evenodd" stroke="#dddfb9" stroke-width="2.4" stroke-linecap="square" stroke-linejoin="bevel" d="M10.3054 11.4529L0 14.5515L9.58149 18.8856L9.1957 30.672L17.3425 22.4843L28.4569 26.3476L22.2077 15.2183L30.0432 7.85427L18.29 9.90366L11.5723 0Z"/><path id="shape035" transform="matrix(0.913633311817665 -0.406539126283656 0.406539162994004 0.913633401888065 340.214538209514 278.745730577489)" fill="#dddfb9" fill-rule="evenodd" stroke="#dddfb9" stroke-width="2.4" stroke-linecap="square" stroke-linejoin="bevel" d="M10.3054 11.4529L0 14.5515L9.58149 18.8856L9.1957 30.672L17.3425 22.4843L28.4569 26.3476L22.2077 15.2183L30.0432 7.85427L18.29 9.90366L11.5723 0Z"/><path id="shape036" transform="matrix(0.875359018722809 0.483473347769077 -0.483473397463972 0.875359102333476 636.271328569157 465.859769214397)" fill="#dddfb9" fill-rule="evenodd" stroke="#dddfb9" stroke-width="2.4" stroke-linecap="square" stroke-linejoin="bevel" d="M15.1233 16.8073L0 21.3545L14.061 27.7149L13.4948 45.0116L25.4504 32.996L41.7609 38.6655L32.5901 22.3331L44.0888 11.5263L26.8408 14.5338L16.9825 0Z"/><path id="shape037" transform="matrix(0.996163970506211 -0.0875051112541998 0.0875051246451263 0.996164085921417 549.910524303761 179.839639511027)" fill="#dddfb9" fill-rule="evenodd" stroke="#dddfb9" stroke-width="2.4" stroke-linecap="square" stroke-linejoin="bevel" d="M10.3054 11.4529L0 14.5515L9.58149 18.8856L9.1957 30.672L17.3425 22.4843L28.4569 26.3476L22.2077 15.2183L30.0432 7.85427L18.29 9.90366L11.5723 0Z"/><path id="shape038" transform="matrix(0.414800720285653 0.909912184900153 -0.909912326478277 0.414800813011746 398.119976549903 402.311367173926)" fill="#dddfb9" fill-rule="evenodd" stroke="#dddfb9" stroke-width="2.4" stroke-linecap="square" stroke-linejoin="bevel" d="M6.7041 8.07798L0 10.2635L6.23317 13.3204L5.9822 21.6336L11.282 15.8587L18.5124 18.5835L14.4471 10.7338L19.5444 5.53979L11.8984 6.98526L7.52828 0Z"/><path id="shape039" transform="matrix(0.98705699068059 -0.160369532053224 0.160369544606117 0.987057087131364 43.7690504393914 366.352534925554)" fill="#dddfb9" fill-rule="evenodd" stroke="#dddfb9" stroke-width="2.4" stroke-linecap="square" stroke-linejoin="bevel" d="M13.5876 15.6692L0 19.9086L12.6332 25.8383L12.1245 41.9638L22.866 30.7618L37.5203 36.0474L29.2808 20.8209L39.6119 10.7458L24.1153 13.5497L15.258 0Z"/><path id="shape0310" transform="matrix(0.996688454995731 0.0813142874322616 -0.0813142984044269 0.996688551639086 317.254532491599 126.901552698274)" fill="#dddfb9" fill-rule="evenodd" stroke="#dddfb9" stroke-width="2.4" stroke-linecap="square" stroke-linejoin="bevel" d="M10.3054 11.4529L0 14.5515L9.58149 18.8856L9.1957 30.672L17.3425 22.4843L28.4569 26.3476L22.2077 15.2183L30.0432 7.85427L18.29 9.90366L11.5723 0Z"/><path id="shape0311" transform="matrix(0.862624131739613 0.50584538535474 -0.505845431126684 0.862624171462158 224.969916633439 244.978902207244)" fill="#dddfb9" fill-rule="evenodd" stroke="#dddfb9" stroke-width="2.4" stroke-linecap="square" stroke-linejoin="bevel" d="M10.3054 11.4529L0 14.5515L9.58149 18.8856L9.1957 30.672L17.3425 22.4843L28.4569 26.3476L22.2077 15.2183L30.0432 7.85427L18.29 9.90366L11.5723 0Z"/><path id="shape0312" transform="matrix(0.987057253207917 0.160367638630586 -0.160367654058165 0.987057368368572 278.065961860418 446.369539042274)" fill="#dddfb9" fill-rule="evenodd" stroke="#dddfb9" stroke-width="2.4" stroke-linecap="square" stroke-linejoin="bevel" d="M10.3054 11.4529L0 14.5515L9.58149 18.8856L9.1957 30.672L17.3425 22.4843L28.4569 26.3476L22.2077 15.2183L30.0432 7.85427L18.29 9.90366L11.5723 0Z"/><path id="shape0313" transform="matrix(0.981141915594037 0.193288466098879 -0.19328848790883 0.981142010381444 61.6965329669045 181.30449035095)" fill="#dddfb9" fill-rule="evenodd" stroke="#dddfb9" stroke-width="2.4" stroke-linecap="square" stroke-linejoin="bevel" d="M8.32911 6.98951L0 8.88053L7.74403 11.5256L7.43222 18.7186L14.0167 13.7218L22.9997 16.0795L17.9489 9.28747L24.2817 4.79333L14.7825 6.04404L9.35305 0Z"/><path id="shape0314" transform="matrix(0.981141879516602 0.193288469865019 -0.193288480801446 0.981142029498557 580.576327359352 307.254385734381)" fill="#dddfb9" fill-rule="evenodd" stroke="#dddfb9" stroke-width="2.4" stroke-linecap="square" stroke-linejoin="bevel" d="M6.7041 6.87742L0 8.73812L6.23317 11.3407L5.9822 18.4184L11.282 13.5018L18.5124 15.8216L14.4471 9.13852L19.5444 4.71646L11.8984 5.9471L7.52828 0Z"/><path id="shape0315" transform="matrix(0.638420862012062 0.769687378152826 -0.76968744465275 0.638420930243205 385.722735162283 69.7543366310716)" fill="#dddfb9" fill-rule="evenodd" stroke="#dddfb9" stroke-width="2.4" stroke-linecap="square" stroke-linejoin="bevel" d="M6.54042 6.5931L0 8.37687L6.08098 10.8719L5.83614 17.657L11.0066 12.9435L18.0604 15.1675L14.0943 8.76073L19.0672 4.52147L11.6079 5.70125L7.34447 0Z"/><path id="shape0316" transform="matrix(-0.128077739722 0.991764059505938 -0.991764154758661 -0.128077741877798 488.626523870725 152.450338531637)" fill="#dddfb9" fill-rule="evenodd" stroke="#dddfb9" stroke-width="2.4" stroke-linecap="square" stroke-linejoin="bevel" d="M8.43409 8.50203L0 10.8023L7.84163 14.0197L7.5259 22.7693L14.1934 16.6911L23.2895 19.559L18.1751 11.2973L24.5878 5.83059L14.9688 7.35196L9.47094 0Z"/><path id="shape0317" transform="matrix(0.876777496521582 0.480896097502905 -0.480896173077907 0.876777571742582 443.462153055093 151.637794786748)" fill="#dddfb9" fill-rule="evenodd" stroke="#dddfb9" stroke-width="2.4" stroke-linecap="square" stroke-linejoin="bevel" d="M6.54042 6.5931L0 8.37687L6.08098 10.8719L5.83614 17.657L11.0066 12.9435L18.0604 15.1675L14.0943 8.76073L19.0672 4.52147L11.6079 5.70125L7.34447 0Z"/><path id="shape0318" transform="matrix(0.981141920567116 0.193288474561587 -0.193288488888544 0.981142053338583 538.773706070449 414.615172816702)" fill="#dddfb9" fill-rule="evenodd" stroke="#dddfb9" stroke-width="2.4" stroke-linecap="square" stroke-linejoin="bevel" d="M9.9065 11.8037L0 14.9972L9.21061 19.464L8.83976 31.6114L16.6712 23.173L27.3554 27.1546L21.3482 15.6844L28.8803 8.09485L17.582 10.207L11.1244 0Z"/><path id="shape0319" transform="matrix(0.862624129621822 0.50584537858072 -0.505845429884805 0.862624159910341 236.527656004778 235.476963685349)" fill="#dddfb9" fill-rule="evenodd" stroke="#dddfb9" stroke-width="2.4" stroke-linecap="square" stroke-linejoin="bevel" d="M6.10746 6.78753L0 8.6239L5.67844 11.1925L5.4498 18.1777L10.278 13.3253L16.8649 15.6148L13.1613 9.01908L17.805 4.65481L10.8395 5.86937L6.85829 0Z"/><path id="shape0320" transform="matrix(0.913633345986722 -0.406539119965331 0.4065391781982 0.913633387688612 320.695826657482 306.259566822939)" fill="#dddfb9" fill-rule="evenodd" stroke="#dddfb9" stroke-width="2.4" stroke-linecap="square" stroke-linejoin="bevel" d="M6.26038 6.95747L0 8.83982L5.82062 11.4727L5.58625 18.6328L10.5353 13.6589L17.2872 16.0058L13.4909 9.2449L18.2508 4.77135L11.1109 6.01633L7.03 0Z"/><path id="shape0" transform="translate(69.9309473683999, 162.353684210526)" fill="none" stroke="#dddfb9" stroke-width="2.4" stroke-linecap="square" stroke-linejoin="miter" stroke-miterlimit="2" d="M0 32.0862L119.05 0"/><path id="shape1" transform="translate(185.797894736821, 159.570694736842)" fill="none" stroke="#dddfb9" stroke-width="2.4" stroke-linecap="square" stroke-linejoin="miter" stroke-miterlimit="2" d="M0 0L183.623 130.228"/><path id="shape2" transform="translate(360, 290.616757894737)" fill="none" stroke="#dddfb9" stroke-width="2.4" stroke-linecap="square" stroke-linejoin="miter" stroke-miterlimit="2" d="M0 0L32.1575 125.48"/><path id="shape3" transform="translate(395.522526315768, 418.061305263158)" fill="none" stroke="#dddfb9" stroke-width="2.4" stroke-linecap="square" stroke-linejoin="miter" stroke-miterlimit="2" d="M0 0L155.611 21.0361"/><path id="shape4" transform="translate(551.22442105261, 318.610357894737)" fill="none" stroke="#dddfb9" stroke-width="2.4" stroke-linecap="square" stroke-linejoin="miter" stroke-miterlimit="2" d="M0 115.167L38.1979 0"/><path id="shape5" transform="translate(360, 285.378189473684)" fill="none" stroke="#dddfb9" stroke-width="2.4" stroke-linecap="square" stroke-linejoin="miter" stroke-miterlimit="2" d="M230.968 36.097L0 0"/>
</svg>
