<?xml version="1.0" standalone="no"?>
<!DOCTYPE svg PUBLIC "-//W3C//DTD SVG 20010904//EN" "http://www.w3.org/TR/2001/REC-SVG-20010904/DTD/svg10.dtd">
<!-- Created using Krita: http://krita.org -->
<svg xmlns="http://www.w3.org/2000/svg" 
    xmlns:xlink="http://www.w3.org/1999/xlink"
    xmlns:krita="http://krita.org/namespaces/svg/krita"
    xmlns:sodipodi="http://sodipodi.sourceforge.net/DTD/sodipodi-0.dtd"
    width="509.52pt"
    height="238.32pt"
    viewBox="0 0 509.52 238.32">
<defs/>
<circle id="shape0" transform="matrix(1.00000002156211 0 0 0.999999969267294 110.880002390807 93.1199971381704)" r="55.8" cx="55.8" cy="55.8" fill="#fddeaf" fill-rule="evenodd" stroke="#fddeaf" stroke-width="2.4" stroke-linecap="square" stroke-linejoin="bevel"/><ellipse id="shape01" transform="matrix(0.999999997631007 0 0 0.999999991667523 45.7844209441687 139.509065349982)" rx="162.071999999993" ry="36.3128351648336" cx="162.071999999993" cy="36.3128351648336" fill="none" stroke="#fddeaf" stroke-width="2.4" stroke-linecap="square" stroke-linejoin="bevel"/><ellipse id="shape01" transform="matrix(1.00000004665659 0 0 0.999999973802994 27.9715078859548 132.483030475035)" rx="205.417183321611" ry="45.3184613877635" cx="205.417183321611" cy="45.3184613877635" fill="none" stroke="#fddeaf" stroke-width="2.4" stroke-linecap="square" stroke-linejoin="bevel"/><ellipse id="shape011" transform="matrix(1.00000000627416 0 0 1.00000001370503 11.7776841826109 124.352335805942)" rx="238.105935703054" ry="54.1399322618393" cx="238.105935703054" cy="54.1399322618393" fill="none" stroke="#fddeaf" stroke-width="2.4" stroke-linecap="square" stroke-linejoin="bevel"/><path id="shape1" transform="matrix(0.999999997631007 0 0 0.999999991667523 351.727228453753 8.95427360958973)" fill="#dddfb9" fill-rule="evenodd" stroke="#dddfb9" stroke-width="2.4" stroke-linecap="square" stroke-linejoin="bevel" d="M6.1502 6.80156L0 8.6417L5.71816 11.2156L5.48793 18.2152L10.3499 13.3527L16.9829 15.6471L13.2534 9.03768L17.9296 4.66442L10.9153 5.88148L6.90627 0Z"/><path id="shape02" transform="matrix(0.94508932558797 0.326812073143089 -0.326812090105853 0.945089363369567 45.9631104128291 100.594255561084)" fill="#dddfb9" fill-rule="evenodd" stroke="#dddfb9" stroke-width="2.4" stroke-linecap="square" stroke-linejoin="bevel" d="M7.16739 7.24949L0 9.21081L6.6639 11.9542L6.39559 19.4149L12.0617 14.2321L19.7917 16.6775L15.4454 9.63289L20.895 4.97161L12.7206 6.26882L8.0485 0Z"/><path id="shape03" transform="matrix(0.999999982883138 0 0 1.00000002285988 234.211321441462 81.2522768212731)" fill="#dddfb9" fill-rule="evenodd" stroke="#dddfb9" stroke-width="2.4" stroke-linecap="square" stroke-linejoin="bevel" d="M4.61005 5.12339L0 6.5095L4.28621 8.44835L4.11363 13.7209L7.75806 10.0582L12.73 11.7864L9.93445 6.8078L13.4396 3.51355L8.1819 4.43033L5.17678 0Z"/><path id="shape04" transform="matrix(0.682219163658113 0.731147708830447 -0.731147746779737 0.682219190931019 126.828648626509 40.2881327338607)" fill="#dddfb9" fill-rule="evenodd" stroke="#dddfb9" stroke-width="2.4" stroke-linecap="square" stroke-linejoin="bevel" d="M5.92117 6.41239L0 8.14724L5.50522 10.5739L5.28357 17.173L9.96448 12.5887L16.3505 14.7518L12.7599 8.52059L17.2619 4.39754L10.5089 5.54496L6.64908 0Z"/><path id="shape2" transform="matrix(0.999999997631007 0 0 0.999999991667523 134.50378924687 65.1776536060618)" fill="#dddfb9" d="M0.581219 0.972337C0.388889 1.02101 0.194746 1.06006 0 1.09774L2.32051e-08 0.0977372L0 1.09774L2.32051e-08 0.0977372C0.112997 0.0539866 0.229253 0.0259547 0.347636 0Z"/><path id="shape05" transform="matrix(0.945089315286645 0.326812077716813 -0.326812086543652 0.945089376596061 460.414039842855 125.463754808608)" fill="#dddfb9" fill-rule="evenodd" stroke="#dddfb9" stroke-width="2.4" stroke-linecap="square" stroke-linejoin="bevel" d="M4.69032 5.8483L0 7.43054L4.36084 9.64372L4.18526 15.6623L7.89313 11.4813L12.9517 13.4541L10.1074 7.77104L13.6736 4.01069L8.32435 5.05718L5.26692 0Z"/><ellipse id="shape02" transform="matrix(1.00000005518878 0 0 0.999999948950315 356.640019682529 165.359991558424)" rx="9.60000000000002" ry="9.59999999999999" cx="9.60000000000002" cy="9.59999999999999" fill="#c5dcb6" fill-rule="evenodd" stroke="#c5dcb6" stroke-width="2.4" stroke-linecap="square" stroke-linejoin="bevel"/><circle id="shape03" transform="matrix(0.999999988583734 0 0 0.999999929766222 400.079995432582 143.759989903192)" r="13.8" cx="13.8" cy="13.8" fill="#f6a8a8" fill-rule="evenodd" stroke="#f6a8a8" stroke-width="2.4" stroke-linecap="square" stroke-linejoin="bevel"/><circle id="shape04" transform="matrix(1.00000004431759 0 0 0.999999986973066 467.520020719362 163.199997874004)" r="17.52" cx="17.52" cy="17.52" fill="#b8d8e1" fill-rule="evenodd" stroke="#b8d8e1" stroke-width="2.4" stroke-linecap="square" stroke-linejoin="bevel"/><path id="shape05" transform="matrix(1.00000004503186 0 0 0.999999998548071 127.09642677601 104.892378795071)" fill="#ffc466" fill-rule="evenodd" stroke="#ffc466" stroke-width="2.4" stroke-linecap="square" stroke-linejoin="bevel" d="M71.3027 5.48413L56.7436 0L22.5549 11.2957L0.727579 30.3264L0 41.3356L38.1524 26.7249L65.4366 12.237Z"/><path id="shape11" transform="matrix(1.00000004503186 0 0 0.999999998548071 125.095584580645 155.149894511575)" fill="#ffc466" fill-rule="evenodd" stroke="#ffc466" stroke-width="2.4" stroke-linecap="square" stroke-linejoin="bevel" d="M53.2952 8.10341L19.5537 0L1.27326 6.63006L0 16.8207L24.9196 34.2144L48.9297 24.1056Z"/><path id="shape21" transform="matrix(1.00000004503186 0 0 0.999999998548071 410.727176390535 156.150315562745)" fill="#ffc466" fill-rule="evenodd" stroke="#ffc466" stroke-width="2.4" stroke-linecap="square" stroke-linejoin="bevel" d="M13.5057 0.204632L5.59326 0L0 8.5536L7.82147 10.3953L10.7773 3.23318Z"/><path id="shape3" transform="matrix(1.00000004503186 0 0 0.999999998548071 406.907386744839 151.64842083245)" fill="#ffc466" fill-rule="evenodd" stroke="#ffc466" stroke-width="2.4" stroke-linecap="square" stroke-linejoin="bevel" d="M0.454737 0L0 3.27411Z"/><path id="shape4" transform="matrix(1.00000004503186 0 0 0.999999998548071 469.680021150554 171.488589224695)" fill="#f3f0e7" fill-rule="evenodd" stroke="#f3f0e7" stroke-width="2.4" stroke-linecap="square" stroke-linejoin="bevel" d="M4.63832 0L0 9.74046L8.45811 21.118L19.9629 22.755L23.8282 13.2601L8.95832 4.37912Z"/><path id="shape5" transform="matrix(1.00000004503186 0 0 0.999999998548071 486.429495589025 163.771705025373)" fill="#f3f0e7" fill-rule="evenodd" stroke="#f3f0e7" stroke-width="2.4" stroke-linecap="square" stroke-linejoin="bevel" d="M0 0L2.81937 6.67099L11.1865 11.0501L10.5954 5.07486Z"/><path id="shape6" transform="matrix(1.00000004503186 0 0 0.999999998548071 360.377700439002 170.428294489392)" fill="#fddeaf" fill-rule="evenodd" stroke="#fddeaf" stroke-width="2.4" stroke-linecap="square" stroke-linejoin="bevel" d="M6.95747 11.1592L1.16716 8.51267L0 3.17861L1.83411 0L5.22947 4.03806L8.26105 10.0952Z"/><path id="shape7" transform="matrix(1.00000004503186 0 0 0.999999998548071 367.986963939555 169.527915543331)" fill="#fddeaf" fill-rule="evenodd" stroke="#fddeaf" stroke-width="2.4" stroke-linecap="square" stroke-linejoin="bevel" d="M0 0L1.75832 3.47874L2.31916 1.32328Z"/><path id="shape06" transform="matrix(1.00000001491246 0 0 0.99999996987377 132.797054611907 159.636374138126)" fill="#f6a8a8" fill-rule="evenodd" stroke="#f6a8a8" stroke-width="2.4" stroke-linecap="square" stroke-linejoin="bevel" d="M0 19.5628L0.288 23.3826L9.23116 32.0726L21.0846 39.9441L53.6135 37.5431L67.8164 27.3524L78.8968 12.0323L83.6109 0L61.8594 12.9873L43.9731 23.0279L16.4918 19.6173Z"/><path id="shape12" transform="matrix(1.00000001491246 0 0 0.99999996987377 119.458107044569 98.0286286257142)" fill="#f6a8a8" fill-rule="evenodd" stroke="#f6a8a8" stroke-width="2.4" stroke-linecap="square" stroke-linejoin="bevel" d="M25.0105 4.95208L10.3832 13.1646L1.18232 25.6199L0 43.5183L9.73137 43.1227L29.8004 26.643L42.2299 16.9981L64.3819 9.86324L72.2425 7.03933L47.4291 0.0682105L27.5116 0Z"/><path id="shape22" transform="matrix(1.00000001491246 0 0 0.99999996987377 120.247580740553 127.790648781728)" fill="#f6a8a8" fill-rule="evenodd" stroke="#f6a8a8" stroke-width="2.4" stroke-linecap="square" stroke-linejoin="bevel" d="M89.568 0L72.7276 2.29187L55.9175 17.6665L28.5575 31.0767L0 34.3781L2.31916 40.5716L28.224 39.3848L47.3836 37.0792L66.2855 28.8667L81.7617 14.0787L91.8265 9.80867L98.3444 12.4825Z"/>
</svg>
