<?xml version="1.0" standalone="no"?>
<!DOCTYPE svg PUBLIC "-//W3C//DTD SVG 20010904//EN" "http://www.w3.org/TR/2001/REC-SVG-20010904/DTD/svg10.dtd">
<!-- Created using Krita: http://krita.org -->
<svg xmlns="http://www.w3.org/2000/svg" 
    xmlns:xlink="http://www.w3.org/1999/xlink"
    xmlns:krita="http://krita.org/namespaces/svg/krita"
    xmlns:sodipodi="http://sodipodi.sourceforge.net/DTD/sodipodi-0.dtd"
    width="240pt"
    height="91.2pt"
    viewBox="0 0 240 91.2">
<defs/>
<path id="shape0" transform="translate(23.7600013905061, 22.0800012921875)" fill="none" stroke="#fddeaf" stroke-width="2.4" stroke-linecap="square" stroke-linejoin="miter" stroke-miterlimit="2" d="M0 0L49.44 19.2"/><path id="shape1" transform="translate(73.2000042838826, 24.9600014607337)" fill="none" stroke="#fddeaf" stroke-width="2.4" stroke-linecap="square" stroke-linejoin="miter" stroke-miterlimit="2" d="M0 16.32L71.52 0"/><ellipse id="shape0" transform="matrix(1.0000001148856 0 0 0.999999958578545 15.3600017718168 13.6799978516432)" rx="9.60000000000002" ry="9.59999999999999" cx="9.60000000000002" cy="9.59999999999999" fill="#c5dcb6" fill-rule="evenodd" stroke="#c5dcb6" stroke-width="2.4" stroke-linecap="square" stroke-linejoin="bevel"/><circle id="shape01" transform="matrix(1.00000004828054 0 0 0.999999939394452 60.2400029580199 27.1200013127908)" r="13.8" cx="13.8" cy="13.8" fill="#f6a8a8" fill-rule="evenodd" stroke="#f6a8a8" stroke-width="2.4" stroke-linecap="square" stroke-linejoin="bevel"/><circle id="shape02" transform="matrix(1.00000010401441 0 0 0.999999996601298 122.400012748945 11.5199988901611)" r="17.52" cx="17.52" cy="17.52" fill="#b8d8e1" fill-rule="evenodd" stroke="#b8d8e1" stroke-width="2.4" stroke-linecap="square" stroke-linejoin="bevel"/><path id="shape2" transform="matrix(1.00000010472868 0 0 1.0000000081763 70.8871653140532 39.5103175832378)" fill="#ffc466" fill-rule="evenodd" stroke="#ffc466" stroke-width="2.4" stroke-linecap="square" stroke-linejoin="bevel" d="M13.5057 0.204632L5.59326 0L0 8.5536L7.82147 10.3953L10.7773 3.23318Z"/><path id="shape3" transform="matrix(1.00000010472868 0 0 1.0000000081763 67.067375440328 35.0084228095975)" fill="#ffc466" fill-rule="evenodd" stroke="#ffc466" stroke-width="2.4" stroke-linecap="square" stroke-linejoin="bevel" d="M0.454737 0L0 3.27411Z"/><path id="shape4" transform="matrix(1.00000010472868 0 0 1.0000000081763 124.560013065659 19.8085887205279)" fill="#f3f0e7" fill-rule="evenodd" stroke="#f3f0e7" stroke-width="2.4" stroke-linecap="square" stroke-linejoin="bevel" d="M4.63832 0L0 9.74046L8.45811 21.118L19.9629 22.755L23.8282 13.2601L8.95832 4.37912Z"/><path id="shape5" transform="matrix(1.00000010472868 0 0 1.0000000081763 141.30948850402 12.0917044469059)" fill="#f3f0e7" fill-rule="evenodd" stroke="#f3f0e7" stroke-width="2.4" stroke-linecap="square" stroke-linejoin="bevel" d="M0 0L2.81937 6.67099L11.1865 11.0501L10.5954 5.07486Z"/><path id="shape6" transform="matrix(1.00000010472868 0 0 1.0000000081763 19.097686212896 18.7482939750161)" fill="#fddeaf" fill-rule="evenodd" stroke="#fddeaf" stroke-width="2.4" stroke-linecap="square" stroke-linejoin="bevel" d="M6.95747 11.1592L1.16716 8.51267L0 3.17861L1.83411 0L5.22947 4.03806L8.26105 10.0952Z"/><path id="shape7" transform="matrix(1.00000010472868 0 0 1.0000000081763 26.7069501676978 17.8479150202861)" fill="#fddeaf" fill-rule="evenodd" stroke="#fddeaf" stroke-width="2.4" stroke-linecap="square" stroke-linejoin="bevel" d="M0 0L1.75832 3.47874L2.31916 1.32328Z"/>
</svg>
