<?xml version="1.0"?>
<svg xmlns="http://www.w3.org/2000/svg" id="Capa_1" enable-background="new 0 0 512 512" height="512" viewBox="0 0 512 512" width="512"><g><path d="m293.833 362.011c2.629 0 5.153-.458 7.5-1.29v83.779c0 4.142 3.358 7.5 7.5 7.5s7.5-3.358 7.5-7.5v-227c0-4.142-3.358-7.5-7.5-7.5s-7.5 3.358-7.5 7.5v122.011c0 4.136-3.365 7.5-7.5 7.5-4.136 0-7.5-3.364-7.5-7.5v-122.011c0-12.407 10.093-22.5 22.5-22.5h105.667c12.407 0 22.5 10.093 22.5 22.5v122.011c0 4.136-3.364 7.5-7.5 7.5-4.135 0-7.5-3.364-7.5-7.5-.001-.019-.001-122.011-.001-122.011 0-4.142-3.358-7.5-7.5-7.5s-7.5 3.358-7.5 7.5v227c0 4.142 3.358 7.5 7.5 7.5s7.5-3.358 7.5-7.5v-83.78c2.348.833 4.871 1.29 7.501 1.29 12.407 0 22.5-10.093 22.5-22.5v-122.01c0-20.678-16.822-37.5-37.5-37.5h-105.667c-20.678 0-37.5 16.822-37.5 37.5v122.011c0 12.406 10.093 22.5 22.5 22.5z" data-original="#000000" class="active-path" style="fill:#E3E9ED" data-old_color="#000000"/><path d="m376.666 332.011h-30c-4.142 0-7.5 3.358-7.5 7.5v104.989c0 4.142 3.358 7.5 7.5 7.5s7.5-3.358 7.5-7.5v-97.489h15v97.489c0 4.142 3.358 7.5 7.5 7.5s7.5-3.358 7.5-7.5v-104.989c0-4.142-3.358-7.5-7.5-7.5z" data-original="#000000" class="active-path" style="fill:#E3E9ED" data-old_color="#000000"/><path d="m361.996 165c28.949 0 52.5-23.551 52.5-52.5s-23.552-52.5-52.5-52.5-52.5 23.551-52.5 52.5 23.551 52.5 52.5 52.5zm0-90c20.678 0 37.5 16.822 37.5 37.5s-16.822 37.5-37.5 37.5-37.5-16.822-37.5-37.5 16.822-37.5 37.5-37.5z" data-original="#000000" class="active-path" style="fill:#E3E9ED" data-old_color="#000000"/><path d="m504.5 0h-285.667c-4.142 0-7.5 3.358-7.5 7.5v497c0 4.142 3.358 7.5 7.5 7.5h285.667c4.142 0 7.5-3.358 7.5-7.5v-497c0-4.142-3.358-7.5-7.5-7.5zm-33.106 30h-219.454l-15-15h249.454zm-230.061 10.606v200.394c0 4.142 3.358 7.5 7.5 7.5s7.5-3.358 7.5-7.5v-196h210.667v422h-210.667v-196c0-4.142-3.358-7.5-7.5-7.5s-7.5 3.358-7.5 7.5v200.394l-15 15v-460.787zm10.607 441.394h219.454l15 15h-249.454zm230.06-10.606v-430.788l15-15v460.787z" data-original="#000000" class="active-path" style="fill:#E3E9ED" data-old_color="#000000"/><path d="m143.167 180h-105.667c-20.678 0-37.5 16.822-37.5 37.5v122.011c0 12.407 10.093 22.5 22.5 22.5 2.629 0 5.153-.458 7.5-1.29v124.863c0 14.565 11.851 26.416 26.417 26.416s26.417-11.851 26.417-26.417v-138.572h15v138.573c0 14.566 11.851 26.417 26.417 26.417s26.417-11.851 26.417-26.417v-124.864c2.348.833 4.871 1.29 7.5 1.29 12.407 0 22.5-10.093 22.5-22.5v-122.01c-.001-20.678-16.824-37.5-37.501-37.5zm22.5 159.511c0 4.136-3.364 7.5-7.5 7.5-4.135 0-7.5-3.364-7.5-7.5 0-.01 0-122.011 0-122.011 0-4.142-3.358-7.5-7.5-7.5s-7.5 3.358-7.5 7.5v268.083c0 6.295-5.122 11.417-11.417 11.417s-11.417-5.122-11.417-11.417v-146.072c0-4.142-3.358-7.5-7.5-7.5h-30c-4.142 0-7.5 3.358-7.5 7.5v146.073c0 6.295-5.122 11.417-11.417 11.417s-11.416-5.123-11.416-11.418v-268.083c0-4.142-3.358-7.5-7.5-7.5s-7.5 3.358-7.5 7.5v122.011c0 4.136-3.364 7.5-7.5 7.5s-7.5-3.364-7.5-7.5v-122.011c0-12.407 10.093-22.5 22.5-22.5h105.667c12.407 0 22.5 10.093 22.5 22.5z" data-original="#000000" class="active-path" style="fill:#E3E9ED" data-old_color="#000000"/><path d="m90.662 165c28.949 0 52.5-23.551 52.5-52.5s-23.551-52.5-52.5-52.5-52.5 23.551-52.5 52.5 23.551 52.5 52.5 52.5zm0-90c20.678 0 37.5 16.822 37.5 37.5s-16.822 37.5-37.5 37.5-37.5-16.822-37.5-37.5 16.822-37.5 37.5-37.5z" data-original="#000000" class="active-path" style="fill:#E3E9ED" data-old_color="#000000"/></g> </svg>
