<?xml version="1.0" standalone="no"?>
<!DOCTYPE svg PUBLIC "-//W3C//DTD SVG 20010904//EN" "http://www.w3.org/TR/2001/REC-SVG-20010904/DTD/svg10.dtd">
<!-- Created using Krita: http://krita.org -->
<svg xmlns="http://www.w3.org/2000/svg" 
    xmlns:xlink="http://www.w3.org/1999/xlink"
    xmlns:krita="http://krita.org/namespaces/svg/krita"
    xmlns:sodipodi="http://sodipodi.sourceforge.net/DTD/sodipodi-0.dtd"
    width="720pt"
    height="720pt"
    viewBox="0 0 720 720">
<defs/>
<path id="shape0" transform="translate(216.447846889928, 126.496076555024)" fill="#d1dee2" fill-rule="evenodd" stroke="#d1dee2" stroke-width="2.4" stroke-linecap="square" stroke-linejoin="bevel" d="M42.5799 4.74373L5.58086 50.7858L0 215.607L31.6249 262.393L230.262 271.788L264.367 233.504L254.549 36.1826L193.573 0Z"/><path id="shape0" transform="matrix(0.983999689784971 0.178170330620489 -0.178170330643651 0.983999689912892 175.174180782474 183.95665815191)" fill="#8c9ca0" fill-rule="evenodd" stroke="#8c9ca0" stroke-width="2.4" stroke-linecap="square" stroke-linejoin="bevel" d="M125.272 0L78.5608 18.7008L36.8463 83.9646L0 174.27L45.5773 194.411L75.5293 159.487C91.2599 125.904 110.509 99.5661 138.793 91.8387L152.253 14.0787Z"/><path id="shape1" transform="matrix(0.983999689784971 0.178170330620489 -0.178170330643651 0.983999689912892 386.847555681529 216.31719372358)" fill="#8c9ca0" fill-rule="evenodd" stroke="#8c9ca0" stroke-width="2.4" stroke-linecap="square" stroke-linejoin="bevel" d="M20.9179 0L57.5596 0.670989L121.344 53.7115L179.065 100.313L158.814 134.469L93.6758 100.679L23.1613 61.7715L0 45.1281Z"/><path id="shape2" transform="matrix(0.983999689784971 0.178170330620489 -0.178170330643651 0.983999689912892 275.554381736579 184.139942296724)" fill="#8c9ca0" fill-rule="evenodd" stroke="#8c9ca0" stroke-width="2.4" stroke-linecap="square" stroke-linejoin="bevel" d="M22.6156 17.0253L1.39453 50.7486L0 113.993L27.2842 222.967L129.873 225.586L213.969 215.054L200.933 146.302L167.586 46.7106L136.118 0L54.5684 6.2208Z"/><path id="shape01" transform="matrix(0.983999646586891 0.178170322798722 -0.178170321384228 0.983999638774923 523.599228136865 313.519048630119)" fill="#8c9ca0" fill-rule="evenodd" stroke="#8c9ca0" stroke-width="2.4" stroke-linecap="square" stroke-linejoin="bevel" d="M11.6441 19.2973L43.2367 0L53.3463 12.9758L37.55 22.7076L69.0523 39.7592L67.7886 54.8113L34.6615 43.9181L72.1213 63.964L63.0948 70.1192L59.755 78.0211L42.4243 80.3501L26.4475 82.18L10.1096 70.951L0 54.8113Z"/><path id="shape11" transform="matrix(0.983999646586891 0.178170322798722 -0.178170321384228 0.983999638774923 125.19157929006 349.019957392571)" fill="#8c9ca0" fill-rule="evenodd" stroke="#8c9ca0" stroke-width="2.4" stroke-linecap="square" stroke-linejoin="bevel" d="M23.0097 0.900379L0 0L4.45642 14.8972L16.9011 21.6L0.803368 53.7681L11.8989 59.907L26.9053 46.4013L26.8143 68.7471L54.0076 65.0637L68.0135 21.5181L63.7541 7.12118Z"/><path id="shape02" transform="matrix(0.98399963206592 0.178170320169446 -0.178170325324984 0.983999660538939 207.802253449424 351.787053613307)" fill="#8c9ca0" fill-rule="evenodd" stroke="#8c9ca0" stroke-width="2.4" stroke-linecap="square" stroke-linejoin="bevel" d="M59.7827 34.0507L68.7562 78.6877L0 91.1293L22.4337 187.279L77.0021 208.779L94.2215 176.911L76.5171 146.68L175.104 133.693L176.317 70.5024L177.408 25.9746L109.622 0Z"/><path id="shape12" transform="matrix(0.98399963206592 0.178170320169446 -0.178170325324984 0.983999660538939 363.02346352222 395.081273486192)" fill="#8c9ca0" fill-rule="evenodd" stroke="#8c9ca0" stroke-width="2.4" stroke-linecap="square" stroke-linejoin="bevel" d="M84.1566 0L129.145 81.7435L126.963 134.347L172.679 162.177C152.054 190.667 153.762 190.917 95.4341 196.774L44.8674 172.436L39.8956 109.573L0 22.4822L61.2177 0.224337Z"/><path id="shape21" transform="matrix(0.98399963206592 0.178170320169446 -0.178170325324984 0.983999660538939 436.41021701344 596.3321444215)" fill="none" stroke="#8c9ca0" stroke-width="2.4" stroke-linecap="square" stroke-linejoin="bevel" d="M0.339786 1.77769C0.17796 0.758189 -0.556519 -0.677107 0.824839 0.358911"/><path id="shape3" transform="matrix(0.98399963206592 0.178170320169446 -0.178170325324984 0.983999660538939 448.907438845929 607.737265768072)" fill="none" stroke="#8c9ca0" stroke-width="2.4" stroke-linecap="square" stroke-linejoin="bevel" d="M0.804574 1.62177C0.163171 0.274825 -0.737905 -0.227445 1.0471 0.0938563"/><path id="shape4" transform="matrix(0.98399963206592 0.178170320169446 -0.178170325324984 0.983999660538939 449.410188298016 609.476440210021)" fill="none" stroke="#8c9ca0" stroke-width="2.4" stroke-linecap="square" stroke-linejoin="bevel" d="M0 0"/><path id="shape03" transform="matrix(0.983999710499855 0.17817033437128 -0.178170326040339 0.983999664489706 244.423248578896 252.53444908861)" fill="#7b898d" fill-rule="evenodd" stroke="#7b898d" stroke-width="2.4" stroke-linecap="square" stroke-linejoin="bevel" d="M20.9179 59.6706L0 11.7049L8.73095 0Z"/><path id="shape13" transform="matrix(0.983999710499855 0.17817033437128 -0.178170326040339 0.983999664489706 446.133943278646 269.176813705427)" fill="#7b898d" fill-rule="evenodd" stroke="#7b898d" stroke-width="2.4" stroke-linecap="square" stroke-linejoin="bevel" d="M0 0L3.72884 38.0615L10.0042 14.2424Z"/><path id="shape22" transform="matrix(0.983999710499855 0.17817033437128 -0.178170326040339 0.983999664489706 293.880545262838 208.116495670335)" fill="#7b898d" fill-rule="evenodd" stroke="#7b898d" stroke-width="2.4" stroke-linecap="square" stroke-linejoin="bevel" d="M0 0L60.3815 14.8972L85.7634 9.08564Z"/><path id="shape31" transform="matrix(0.983999710499855 0.17817033437128 -0.178170326040339 0.983999664489706 290.939351506786 255.497693294382)" fill="#7b898d" fill-rule="evenodd" stroke="#7b898d" stroke-width="2.4" stroke-linecap="square" stroke-linejoin="bevel" d="M4.00168 56.3965L32.7411 78.8271L87.3095 59.8343L127.508 54.432L146.789 0L124.871 41.09L31.104 55.9872L0 32.9866Z"/><path id="shape41" transform="matrix(0.983999710499855 0.17817033437128 -0.178170326040339 0.983999664489706 391.994193809369 483.274842450185)" fill="#7b898d" fill-rule="evenodd" stroke="#7b898d" stroke-width="2.4" stroke-linecap="square" stroke-linejoin="bevel" d="M0 25.1288L36.8337 0L12.4598 27.0114Z"/><path id="shape5" transform="matrix(0.983999710499855 0.17817033437128 -0.178170326040339 0.983999664489706 386.893820747971 490.004221787468)" fill="#7b898d" fill-rule="evenodd" stroke="#7b898d" stroke-width="2.4" stroke-linecap="square" stroke-linejoin="bevel" d="M0 18.335L25.7381 0L27.3752 8.34897L9.18568 25.7836Z"/><path id="shape6" transform="matrix(0.983999710499855 0.17817033437128 -0.178170326040339 0.983999664489706 259.943967769608 437.866503976213)" fill="#7b898d" fill-rule="evenodd" stroke="#7b898d" stroke-width="2.4" stroke-linecap="square" stroke-linejoin="bevel" d="M0 0L52.8404 27.5843L12.3688 17.8439Z"/><path id="shape7" transform="matrix(0.983999710499855 0.17817033437128 -0.178170326040339 0.983999664489706 471.830576119787 315.105647042063)" fill="#7b898d" fill-rule="evenodd" stroke="#7b898d" stroke-width="2.4" stroke-linecap="square" stroke-linejoin="bevel" d="M0 17.0253L20.0994 0L25.7381 11.132L6.36632 16.4524Z"/><path id="shape8" transform="matrix(0.983999710499855 0.17817033437128 -0.178170326040339 0.983999664489706 216.122047833949 322.059598894969)" fill="#7b898d" fill-rule="evenodd" stroke="#7b898d" stroke-width="2.4" stroke-linecap="square" stroke-linejoin="bevel" d="M16.9162 0L0 0L10.9137 12.5068Z"/><path id="shape9" transform="matrix(0.983999710499855 0.17817033437128 -0.178170326040339 0.983999664489706 180.739862666594 439.19916371799)" fill="#7b898d" fill-rule="evenodd" stroke="#7b898d" stroke-width="2.4" stroke-linecap="square" stroke-linejoin="bevel" d="M12.6417 0L0 9.65861L22.2821 102.643L72.7579 126.299L100.042 99.4509L80.3975 108.864L34.8328 87.9916L16.5524 5.72968Z"/><path id="shape10" transform="matrix(0.983999710499855 0.17817033437128 -0.178170326040339 0.983999664489706 378.588054489177 556.293409212002)" fill="#7b898d" fill-rule="evenodd" stroke="#7b898d" stroke-width="2.4" stroke-linecap="square" stroke-linejoin="bevel" d="M0.909474 16.2068L0 31.5951L37.7432 47.4745L105.954 47.4745L129.418 18.5805L126.417 0L96.768 29.7125L37.4703 29.7944L4.72926 17.0253Z"/><path id="shape11" transform="matrix(0.983999710499855 0.17817033437128 -0.178170326040339 0.983999664489706 369.956425876053 49.060494128088)" fill="#7b898d" fill-rule="evenodd" stroke="#7b898d" stroke-width="2.4" stroke-linecap="square" stroke-linejoin="bevel" d="M0 25.6199L5.72968 0L13.8619 25.8654Z"/><ellipse id="shape12" transform="matrix(0.983999710499855 0.17817033437128 -0.178170326040339 0.983999664489706 371.221957250699 37.7040140886072)" rx="7.32000000000002" ry="6.36" cx="7.32000000000002" cy="6.36" fill="#7b898d" fill-rule="evenodd" stroke="#7b898d" stroke-width="2.4" stroke-linecap="square" stroke-linejoin="bevel"/><path id="shape13" transform="matrix(0.983999710499855 0.17817033437128 -0.178170326040339 0.983999664489706 377.551702875674 418.899036985557)" fill="#7b898d" fill-rule="evenodd" stroke="#7b898d" stroke-width="2.4" stroke-linecap="square" stroke-linejoin="bevel" d="M32.6046 14.0787L0 41.5402L8.86737 44.2413L44.3823 0Z"/><path id="shape04" transform="matrix(0.983999650352466 0.178170323480545 -0.178170331127535 0.98399969258529 282.90313992986 59.3235217119705)" fill="#8c9ca0" fill-rule="evenodd" stroke="#8c9ca0" stroke-width="2.4" stroke-linecap="square" stroke-linejoin="bevel" d="M13.8775 23.4396C-12.0645 82.4668 5.38905 101.147 10.3636 131.429C67.3394 152.751 122.438 159.082 172.829 127.802C187.906 100.148 190.027 64.4953 171.795 16.2775L85.3952 0Z"/><path id="shape14" transform="matrix(0.983999650352466 0.178170323480545 -0.178170331127535 0.98399969258529 298.465975265478 94.186036166134)" fill="#5e6e72" fill-rule="evenodd" stroke="#5e6e72" stroke-width="2.4" stroke-linecap="square" stroke-linejoin="bevel" d="M14.5722 12.836L0 40.2752L10.8517 84.6431L55.3952 99.1533L129.29 93.9445L145.619 56.6457L135.388 9.48746L65.8335 0Z"/><path id="shape23" transform="matrix(0.983999650352466 0.178170323480545 -0.178170331127535 0.98399969258529 392.229804742679 132.087091343501)" fill="#9db2b7" fill-rule="evenodd" stroke="#9db2b7" stroke-width="2.4" stroke-linecap="square" stroke-linejoin="bevel" d="M11.8838 0L0 3.21954L11.8838 23.2461L17.8257 42.1268L26.6173 20.0266Z"/>
</svg>
